<svg xmlns="http://www.w3.org/2000/svg" viewBox="0 0 525.65 354.55"><defs><style>.cls-1{fill:#f6f4f3;}.cls-2{fill:#b54645;}</style></defs><title>pong_SVG</title><g id="Layer_2" data-name="Layer 2"><g id="Layer_1-2" data-name="Layer 1"><path class="cls-1" d="M398,354.55A37.48,37.48,0,0,1,373.71,346a58.1,58.1,0,0,1-13.87-17.12,78.11,78.11,0,0,1-7.57-20.43,91.37,91.37,0,0,1-2.3-19.6,82.76,82.76,0,0,1,2.32-21.09A54,54,0,0,1,361,249.66a102.11,102.11,0,0,1,14.4-15.55q3.72-3.35,8.37-7.4c-8.12-2.27-15.07-7.4-20.42-15.18-.26-.38-.52-.77-.77-1.17q-2.36,2.23-4.76,4.31a92.29,92.29,0,0,1-15.39,10.85,40,40,0,0,1-19.33,5.37,37.18,37.18,0,0,1-17.08-3.84,34,34,0,0,1-12.26-10.49,34.51,34.51,0,0,1-6-14.75,40.94,40.94,0,0,1,.7-16c.62-2.86,1.58-6.47,2.86-10.75,1.13-3.79,2.33-8,3.66-12.89.79-2.89,1.56-5.85,2.31-8.83-.51.65-1,1.32-1.53,2-2.42,3.25-4.82,6.6-7.15,10-1.26,4.83-2.29,8.95-3.12,12.54-1,4.23-1.9,8.18-2.69,11.76s-1.58,7-2.33,9.87c-.67,2.61-1.22,4.92-1.68,7.07-.09.39-.19.77-.3,1.15-1.58,5.3-5.3,9.83-11.05,13.46a56.55,56.55,0,0,1-11.31,5.48,38.17,38.17,0,0,1-12.66,2.41c-7.88,0-12.27-4-14.18-6.37A16.73,16.73,0,0,1,226,209c.23-1.3.68-3.31,1.93-8.08q1.31-5,3.05-11.62l.33-1.27c.85-3.23,1.74-6.69,2.66-10.33-1.19.6-2.38,1.15-3.57,1.68a103.61,103.61,0,0,1-5.94,14,76.32,76.32,0,0,1-13.13,18.42,61.43,61.43,0,0,1-18.24,12.89,54.8,54.8,0,0,1-23,4.86c-10.37,0-19-2.53-25.72-7.51a43,43,0,0,1-13.85-17.26,61,61,0,0,1-4.87-19.65c-.45-5.65-.69-11-.7-15.86-1.26.64-2.53,1.26-3.81,1.87A128.42,128.42,0,0,1,82,182.24c-.6,2.94-1.22,6-1.87,9.25-1.42,7.08-2.94,14.09-4.51,20.84s-3.25,13.24-5,19.38A152,152,0,0,1,65,248.16a44.41,44.41,0,0,1-10.22,16c-5.67,5.49-13.64,8.26-23.7,8.26A31.85,31.85,0,0,1,14.86,268,42.26,42.26,0,0,1,3.38,258a15,15,0,0,1,2.68-21.52c.27-.21.91-.71,2.41-1.94a24.84,24.84,0,0,0,2.15-3.15,80.11,80.11,0,0,0,5.47-11.94A195.36,195.36,0,0,0,23,195.93c1.39-5.73,3.24-13.12,5.5-22,2.16-8.46,4.59-17.78,7.45-28.49,2.34-8.73,4.85-18.27,8.17-31C47,103.59,49.69,93.32,52.22,84c.17-.61.33-1.21.49-1.82a14.3,14.3,0,0,1-1.6.09,15,15,0,0,1-9.71-3.56,37.07,37.07,0,0,1-8.34-9.94,36.17,36.17,0,0,1-2.76-5.24l-.12-.29a36.46,36.46,0,0,1-2.64-13.64c0-8,4.37-15,13-20.92,2.29-1.59,5.58-3.76,10.66-7a130.32,130.32,0,0,1,19.27-9.89,159.89,159.89,0,0,1,26.11-8.2A148.37,148.37,0,0,1,129.83,0c13.79,0,25.4,3,34.52,8.9a61.29,61.29,0,0,1,20.2,21,71.76,71.76,0,0,1,8.69,25,88.05,88.05,0,0,1,.88,21.9s0,.07,0,.11a90.52,90.52,0,0,1-2.21,12.34A18.05,18.05,0,0,1,195,90a43.34,43.34,0,0,1,11.19,3.65,50.93,50.93,0,0,1,14,9.87,55.32,55.32,0,0,1,11.28,16.17,47.28,47.28,0,0,1,3.37,9.92q1.45-.85,2.88-1.74c3.31-2,6.45-4.15,9.33-6.28.84-3.37,1.78-7,2.85-11.12a15,15,0,0,1,4.73-7.57,31.57,31.57,0,0,1,7.18-4.67,37.64,37.64,0,0,1,5.94-2.19,34.24,34.24,0,0,1,7.15-1.6,14.17,14.17,0,0,1,1.72-.1,48.6,48.6,0,0,1,6,.37l.39,0a38.21,38.21,0,0,1,6.26,1.51,25.33,25.33,0,0,1,5.8,2.76,64.23,64.23,0,0,1,8.34-4.36A44.27,44.27,0,0,1,321.06,91a29.78,29.78,0,0,1,17.69,5.75,34,34,0,0,1,11,14A50.34,50.34,0,0,1,353.58,128a62.12,62.12,0,0,1-2.43,20l-2.78,11.14c-.59,2.48-1.28,5.26-2.06,8.29,3.31-3.73,6.51-7.56,9.56-11.43.61-2.84,1.36-5.78,2.23-8.78a109.89,109.89,0,0,1,12-27,83.24,83.24,0,0,1,20.27-22.48A50.37,50.37,0,0,1,421.6,87.11,31.81,31.81,0,0,1,440,92.59a41.44,41.44,0,0,1,6.27,5.31,29.6,29.6,0,0,1,16.16-4.3,27.77,27.77,0,0,1,13.07,3c9.14,4.82,10.5,11.85,10.5,15.62a15,15,0,0,1-1.35,6.22c-1,2.2-1.74,3.77-2.34,4.94-.43.88-.89,1.84-1.35,2.82a22.38,22.38,0,0,0-.8,2.29c-.35,1.21-1,3.49-1.92,7l-.09.33c-.07.23-.46,1.68-1.7,7.47-1,4.68-2.28,10.08-3.73,16.1l-.15.59c2.82-2.61,5.4-5.1,7.69-7.46a72.11,72.11,0,0,0,6.5-7.33A27.12,27.12,0,0,1,497,136a22.89,22.89,0,0,1,10.35-2.6,20,20,0,0,1,3.88.38,17.72,17.72,0,0,1,14.11,14.1c1,5.19-.15,10.46-3.61,16.11a130.7,130.7,0,0,1-16.5,21.11,255.21,255.21,0,0,1-18.63,17.66,232.52,232.52,0,0,1-18.62,14.44c-3.5,2.42-6.73,4.6-9.68,6.51-1.18,5.18-2.22,9.62-3.13,13.23-1.19,4.74-2.2,9-3,12.78l-3.23,15.48c-1.34,6.44-2.86,13.23-4.51,20.16-1.7,7.18-3.72,14.49-6,21.7a161.62,161.62,0,0,1-7.89,20.36,71,71,0,0,1-11,17C411.93,352.79,403.61,354.55,398,354.55Zm6.76-173.77a4.73,4.73,0,0,0,2.59-.75,32.27,32.27,0,0,0,5.95-4.52,31.66,31.66,0,0,0,4.42-5.19c1.51-2.26,2.42-3.72,2.95-4.64s1-2.49,1.82-4.67c.51-1.37.93-2.7,1.26-4a20.88,20.88,0,0,1-2.12-3.35,33.09,33.09,0,0,1-2.68-7.64,44.87,44.87,0,0,1-1-7.08c-.06-1.16-.15-2.15-.26-2.94s-.2-1.26-.3-1.8a38.28,38.28,0,0,0-5.89,8.16,63,63,0,0,0-5.76,14.51,56.78,56.78,0,0,0-2.1,14.71,35.35,35.35,0,0,0,1,9.16ZM91,134.67q3.22-1.44,6.47-3.21a95.74,95.74,0,0,0,14.5-9.79,78.36,78.36,0,0,0,12.52-12.86,69.78,69.78,0,0,0,9.28-16.25,71.54,71.54,0,0,0,4.79-20.29c.82-8.28,0-13.13-.81-15.76a20.07,20.07,0,0,0-4.35-8,14.25,14.25,0,0,0-5.87-3.74,28.15,28.15,0,0,0-8.85-1.47,30.22,30.22,0,0,0-5.72.54c-1.59,6.16-3.31,12.66-5,19-2.41,9.13-4.7,17.76-6,23.21-2.65,11.12-4.77,20.3-6.3,27.27l0,.14c-1.85,8.06-3.3,14.64-4.32,19.55C91.19,133.52,91.08,134.08,91,134.67Z"/><path class="cls-2" d="M510.58,150.82a2.76,2.76,0,0,0-2.34-2.34,7.13,7.13,0,0,0-4.55.91A12.51,12.51,0,0,0,499,153.8,85.38,85.38,0,0,1,491,163q-5.44,5.58-12.47,11.82t-14.8,12.21a135.8,135.8,0,0,1-15.07,10.13q2.34-10.4,4.81-21.3t4.67-20q2.2-9.09,3.64-15.71c.95-4.42,1.6-7.23,1.95-8.45.86-3.29,1.56-5.8,2.07-7.53a33.62,33.62,0,0,1,1.56-4.29c.52-1.12,1-2.21,1.56-3.25s1.21-2.5,2.08-4.41c0-.69-.82-1.47-2.47-2.34a13,13,0,0,0-6.1-1.3q-6.5,0-9.74,3.25t-5.85,12.08a13.28,13.28,0,0,0-.78,3,18.92,18.92,0,0,1-.78,3.24,73.33,73.33,0,0,0-2.34-9,37.07,37.07,0,0,0-4.41-9.09,26.4,26.4,0,0,0-7-7.15,17,17,0,0,0-9.87-2.85,35.51,35.51,0,0,0-22.08,7.53,68,68,0,0,0-16.63,18.45,94.56,94.56,0,0,0-10.39,23.38,100.65,100.65,0,0,0-2.59,10.95l-.27.35q-6.5,8.44-13.76,16.49A125.08,125.08,0,0,1,341.46,193q-7.15,5.72-11.82,5.72t-5.07-4.16a28.18,28.18,0,0,1,1.17-9.87q2.85-8.83,4.81-16.24t3.24-12.86l2.86-11.43a47.1,47.1,0,0,0,2-15.33,35.14,35.14,0,0,0-2.6-12.08,19,19,0,0,0-6.1-7.92,14.62,14.62,0,0,0-8.84-2.86,29.32,29.32,0,0,0-11.69,2.47,50.61,50.61,0,0,0-10.78,6.37,68.63,68.63,0,0,0-9.35,8.7,118.47,118.47,0,0,0-7.66,9.48q1.56-4.41,2.59-8.57c.69-2.42,1.39-4.72,2.08-6.89s1.3-3.85,1.82-5.06a10.61,10.61,0,0,0-3.51-2,22.51,22.51,0,0,0-3.76-.91,34.29,34.29,0,0,0-4.16-.26,18.65,18.65,0,0,0-4.42,1,22.38,22.38,0,0,0-4,1.43,16.62,16.62,0,0,0-3.77,2.47q-2.25,8.57-4,16-1.62,1.32-3.51,2.74-5.2,3.9-11.3,7.67T233,147.83a127.72,127.72,0,0,1-12.47,5.71c.17-1.38.34-3.07.52-5.06s.26-3.68.26-5.07q0-10.12-3.38-17.27a40.29,40.29,0,0,0-8.18-11.82,35.91,35.91,0,0,0-9.88-7,26.06,26.06,0,0,0-8.44-2.6c-.52-.17-1-.34-1.43-.51a3.68,3.68,0,0,0-1.43-.26,41.61,41.61,0,0,0-9.61,1.16,40.53,40.53,0,0,0-9.22,3.38c-.66.34-1.3.7-1.92,1.09.7-1.28,1.38-2.58,2-3.89q7.78-15.86,9.35-30.4a74.21,74.21,0,0,0-.78-18.18,56.64,56.64,0,0,0-6.89-19.75A46.26,46.26,0,0,0,156.2,21.49Q146.2,15,129.83,15A133,133,0,0,0,100,18.12a144.48,144.48,0,0,0-23.64,7.4,114.42,114.42,0,0,0-17,8.7c-4.59,3-8,5.2-10.26,6.76q-6.51,4.43-6.5,8.57A21.44,21.44,0,0,0,44.1,57.6,20.19,20.19,0,0,0,45.92,61a21.62,21.62,0,0,0,5.19,6.24q4.43-4.68,9.1-9T69,50.59a89.35,89.35,0,0,1,9.61-7q-1.82,6.49-4.93,18.18t-7,26.11q-3.9,14.41-8.05,30.4t-8.19,31q-4,15.08-7.4,28.32T37.6,199.45a208.08,208.08,0,0,1-7.53,25.46,96.62,96.62,0,0,1-6.62,14.29,27.75,27.75,0,0,1-5.2,6.75c-1.47,1.21-2.55,2.08-3.25,2.6A27.29,27.29,0,0,0,22.41,255a17,17,0,0,0,8.7,2.34q9.09,0,13.25-4a29.57,29.57,0,0,0,6.75-10.79,135.57,135.57,0,0,0,5.07-14.94q2.46-8.7,4.81-18.7t4.41-20.39q2.09-10.39,4.16-20.27Q95,167,114.76,157.62a123.23,123.23,0,0,0,33.51-22.73c.44-.42.87-.85,1.29-1.28a85.2,85.2,0,0,0-5.15,12.14A98,98,0,0,0,141.16,158,57.23,57.23,0,0,0,140,168.87q0,7,.65,15.07a45.56,45.56,0,0,0,3.64,14.81,28.05,28.05,0,0,0,9.09,11.3q6.1,4.55,16.76,4.54a39.73,39.73,0,0,0,16.75-3.5,46,46,0,0,0,13.77-9.74,60.78,60.78,0,0,0,10.52-14.81,89.86,89.86,0,0,0,7-18.45,81.59,81.59,0,0,0,16.37-7.79q8.56-5.19,15.84-10.65,3.65-2.73,6.8-5.27c-.19.92-.38,1.81-.56,2.67q-1.56,7.27-2.86,13.25-1.82,7.53-3.9,15.85t-4,15.71q-2,7.41-3.38,12.86c-.95,3.64-1.52,6-1.69,7-.34,1.55.56,2.33,2.73,2.33a23.77,23.77,0,0,0,7.66-1.55,41.18,41.18,0,0,0,8.31-4q3.9-2.46,4.68-5.07.78-3.63,1.82-7.66t2.21-9.35q1.17-5.32,2.73-11.95T274.82,159q4.41-6.5,9-12.6a108.21,108.21,0,0,1,9.1-10.78,47,47,0,0,1,9-7.4,16.29,16.29,0,0,1,8.57-2.73c2.25,0,3.73,1.26,4.42,3.76a28,28,0,0,1,.52,9.62,94.45,94.45,0,0,1-2.21,13q-1.69,7.14-3.64,14.28t-3.76,13.25q-1.83,6.11-2.6,9.75a26,26,0,0,0-.52,10.26,19.63,19.63,0,0,0,3.38,8.44,19,19,0,0,0,6.88,5.85,22.32,22.32,0,0,0,10.26,2.2,25.19,25.19,0,0,0,12.08-3.5,76.48,76.48,0,0,0,12.86-9.1,119.33,119.33,0,0,0,12.47-12.47q4.5-5.17,8.55-10.29,1,14.37,6.65,22.5,6.88,10,18.05,10a38.61,38.61,0,0,0,21.7-6.24,63.47,63.47,0,0,0,16.23-15.33q-.78,3.65-2,8.19c-.77,3-1.6,6.28-2.46,9.74q-4.95,3.9-10.39,8.57t-11.44,9.87q-12.21,10.4-20,17.41a88.82,88.82,0,0,0-12.34,13.25,39.06,39.06,0,0,0-6.36,13.12A69,69,0,0,0,365,288.89a76.32,76.32,0,0,0,1.95,16.37,62.85,62.85,0,0,0,6.1,16.5,43,43,0,0,0,10.26,12.73A22.29,22.29,0,0,0,398,339.55q5.71,0,10.39-5.19A55.94,55.94,0,0,0,416.93,321a146.52,146.52,0,0,0,7.14-18.45q3.24-10.26,5.71-20.65t4.42-19.75q1.95-9.34,3.25-15.58,1.29-6,3.12-13.25t4.41-19q6-3.63,14.42-9.48a215.92,215.92,0,0,0,17.41-13.51,240.18,240.18,0,0,0,17.53-16.62,114.33,114.33,0,0,0,14.55-18.58C510.27,153.89,510.84,152.12,510.58,150.82ZM105.93,30.07a45.34,45.34,0,0,1,12.73-1.82,43.37,43.37,0,0,1,13.51,2.21,29.23,29.23,0,0,1,12,7.53A34.52,34.52,0,0,1,152,52q2.73,8.7,1.43,21.69a85.86,85.86,0,0,1-5.85,24.55A84,84,0,0,1,136.32,118a92.72,92.72,0,0,1-14.93,15.32,110.78,110.78,0,0,1-16.76,11.3A97.67,97.67,0,0,1,87.48,152,100,100,0,0,1,71.9,155.8q1.56-8.31,2.72-14.93t1.95-10.78q1.56-7.55,4.42-20,2.34-10.65,6.36-27.54C90,71.29,96.48,48.05,100.64,31.25m91.7,152.3a42.66,42.66,0,0,1-5.59,8,27.22,27.22,0,0,1-7,5.72,17.1,17.1,0,0,1-8.57,2.21,10.08,10.08,0,0,1-6.76-2.21,15.75,15.75,0,0,1-4.15-5.72,27.12,27.12,0,0,1-2.08-8,80.25,80.25,0,0,1-.52-9.22,49.78,49.78,0,0,1,1-9.87q1-5.21,2.6-10.66a38.29,38.29,0,0,0,11,14.94,26,26,0,0,0,17,5.85c1.39,0,2.64,0,3.77-.13s2.29-.22,3.51-.39A73.77,73.77,0,0,1,192.34,183.55Zm10.78-36a21.26,21.26,0,0,1-.65,4.81c-.43,1.81-.91,3.85-1.43,6.1a23.5,23.5,0,0,1-2.59.39,25.29,25.29,0,0,1-2.6.13q-8.06,0-12.6-2.47a16.33,16.33,0,0,1-6.63-6.1,21,21,0,0,1-2.59-8.19,75.73,75.73,0,0,1-.52-8.7,15.26,15.26,0,0,1,.78-4.94,31.65,31.65,0,0,1,8.44-7.66,18.15,18.15,0,0,1,9.48-2.73,6.66,6.66,0,0,1,5.33,2.73,22.24,22.24,0,0,1,3.63,7,44,44,0,0,1,2,9.48A49,49,0,0,1,203.12,147.57ZM417.7,248.76q-2.07,8.7-4,16.23t-3.38,13.38q-1.43,5.85-2.21,9a173.89,173.89,0,0,1-6.88,20.91q-3.25,7.65-8.45,7.66a6.44,6.44,0,0,1-3.76-1.17,8.77,8.77,0,0,1-2.86-4.28,38,38,0,0,1-1.82-8.58,123.45,123.45,0,0,1-.65-14,42.14,42.14,0,0,1,2.47-15.07,49.5,49.5,0,0,1,6.62-12.08,83.42,83.42,0,0,1,9.49-10.66l11-10.51a55.68,55.68,0,0,1,4.54-4.55q2.21-2,4.29-3.77Q419.78,240.06,417.7,248.76Zm21.05-90.54a55.88,55.88,0,0,1-2.21,7.53c-1,2.6-1.78,4.68-2.47,6.24q-1.31,2.34-3.9,6.23A48.2,48.2,0,0,1,415,192.51a19.73,19.73,0,0,1-10.26,2.86q-9.89,0-13-6.62t-3.12-17.54a71.69,71.69,0,0,1,2.6-18.57,78.23,78.23,0,0,1,7.14-17.93,50.6,50.6,0,0,1,10.39-13.38q5.85-5.19,12.34-5.19,3.9,0,7,4.15t4.41,13.25c.17,1.21.3,2.6.39,4.16a28.82,28.82,0,0,0,.65,4.67,18,18,0,0,0,1.43,4.16,3.42,3.42,0,0,0,2.47,2.08q1.82.25,1.95,3.12A26,26,0,0,1,438.75,158.22Z"/></g></g></svg>